<?xml version="1.0" standalone="no"?>
<!DOCTYPE svg PUBLIC "-//W3C//DTD SVG 20010904//EN"
 "http://www.w3.org/TR/2001/REC-SVG-20010904/DTD/svg10.dtd">
<svg version="1.0" xmlns="http://www.w3.org/2000/svg"
 width="71.000000pt" height="71.000000pt" viewBox="0 0 71.000000 71.000000"
 preserveAspectRatio="xMidYMid meet">
<metadata>
Created by potrace 1.11, written by Peter Selinger 2001-2013
</metadata>
<g transform="translate(0.000000,71.000000) scale(0.100000,-0.100000)"
fill="#000000" stroke="none">
<path d="M105 558 c-5 -27 -17 -96 -44 -268 -15 -93 -16 -92 22 -88 26 2 33 8
35 28 8 78 13 90 35 90 18 0 28 -13 49 -60 25 -57 28 -60 62 -60 20 0 36 2 36
4 0 3 -14 34 -30 70 -17 37 -28 72 -24 79 4 6 27 37 51 68 24 30 43 58 43 62
0 8 -70 6 -70 -2 0 -3 -18 -26 -40 -51 -22 -25 -40 -48 -40 -51 0 -4 -10 -6
-22 -5 -25 1 -26 7 -14 84 20 135 21 122 -13 122 -24 0 -32 -5 -36 -22z"/>
<path d="M375 480 c-2 -3 -5 -66 -6 -140 l-3 -135 36 -3 36 -3 22 73 c13 40
29 93 36 118 13 43 13 39 11 -73 l-2 -118 40 3 c39 3 39 3 57 68 11 36 28 94
38 129 25 82 25 89 -4 89 -22 0 -26 -10 -55 -117 -18 -64 -34 -120 -36 -126
-1 -5 -3 37 -3 95 -1 163 1 152 -24 148 -20 -3 -29 -21 -64 -127 l-41 -124 4
126 c5 125 5 126 -17 124 -12 -1 -23 -4 -25 -7z"/>
</g>
</svg>
